<svg width="630" height="86" viewBox="0 0 630 86" fill="none" xmlns="http://www.w3.org/2000/svg">
<path d="M629.909 63.8492C629.909 68.2159 628.575 71.9159 625.909 74.9492C623.275 77.9825 619.475 80.2825 614.509 81.8492C609.542 83.3825 603.609 84.1492 596.709 84.1492C589.642 84.1492 583.409 83.2826 578.009 81.5492C572.642 79.8159 568.442 77.3826 565.409 74.2492C562.375 71.0826 560.759 67.4326 560.559 63.2992H581.309C581.975 65.6326 583.692 67.4325 586.459 68.6992C589.259 69.9659 592.959 70.5992 597.559 70.5992C601.659 70.5992 604.742 70.1992 606.809 69.3992C608.909 68.5992 609.959 67.4159 609.959 65.8492C609.959 64.9492 609.609 64.2325 608.909 63.6992C608.242 63.1325 607.142 62.6826 605.609 62.3492C604.109 61.9825 602.042 61.6992 599.409 61.4992L589.309 60.7492C579.542 60.0159 572.575 58.1659 568.409 55.1992C564.242 52.2325 562.159 48.1659 562.159 42.9992C562.159 38.7992 563.475 35.2659 566.109 32.3992C568.775 29.4992 572.525 27.3325 577.359 25.8992C582.192 24.4325 587.859 23.6992 594.359 23.6992C600.692 23.6992 606.375 24.5325 611.409 26.1992C616.475 27.8659 620.509 30.1992 623.509 33.1992C626.542 36.1992 628.275 39.6492 628.709 43.5492H607.959C607.425 41.5492 605.959 39.8992 603.559 38.5992C601.159 37.2992 597.775 36.6492 593.409 36.6492C589.775 36.6492 586.992 37.0492 585.059 37.8492C583.159 38.6159 582.209 39.7159 582.209 41.1492C582.209 42.3825 582.809 43.3159 584.009 43.9492C585.209 44.5825 587.392 45.0159 590.559 45.2492L603.809 46.2492C610.275 46.7159 615.425 47.6825 619.259 49.1492C623.092 50.6159 625.825 52.5659 627.459 54.9992C629.092 57.3992 629.909 60.3492 629.909 63.8492Z" fill="#292929"/>
<path d="M502.763 5.5V36.15C505.529 32.15 508.946 29.0833 513.012 26.95C517.112 24.7833 521.646 23.7 526.613 23.7C532.146 23.7 537.046 24.9667 541.313 27.5C545.613 30 548.946 33.55 551.313 38.15C553.679 42.7167 554.863 47.9833 554.863 53.95C554.863 59.8833 553.679 65.15 551.313 69.75C548.946 74.3167 545.613 77.8667 541.313 80.4C537.046 82.9 532.146 84.15 526.613 84.15C521.646 84.15 517.112 83.05 513.012 80.85C508.946 78.65 505.529 75.5333 502.763 71.5V82.5H482.312V5.5H502.763ZM501.913 53.95C502.846 56.75 504.246 59.25 506.113 61.45C508.013 63.65 510.196 65.3833 512.663 66.65C515.163 67.8833 517.762 68.5 520.462 68.5C523.129 68.5 525.496 67.8833 527.563 66.65C529.663 65.3833 531.296 63.65 532.462 61.45C533.629 59.25 534.212 56.75 534.212 53.95C534.212 51.15 533.629 48.65 532.462 46.45C531.296 44.2167 529.663 42.4833 527.563 41.25C525.496 39.9833 523.129 39.35 520.462 39.35C517.762 39.35 515.163 39.9833 512.663 41.25C510.196 42.4833 508.013 44.2167 506.113 46.45C504.246 48.65 502.846 51.15 501.913 53.95Z" fill="#292929"/>
<path d="M449.747 70.9492C446.98 75.1492 443.53 78.3992 439.397 80.6992C435.264 82.9992 430.647 84.1492 425.547 84.1492C420.014 84.1492 415.097 82.8992 410.797 80.3992C406.53 77.8659 403.214 74.3159 400.847 69.7492C398.48 65.1492 397.297 59.8825 397.297 53.9492C397.297 47.9825 398.48 42.7159 400.847 38.1492C403.214 33.5492 406.53 29.9992 410.797 27.4992C415.097 24.9659 420.014 23.6992 425.547 23.6992C430.614 23.6992 435.23 24.8326 439.397 27.0992C443.564 29.3659 447.03 32.5825 449.797 36.7492L451.247 25.3492H472.447L468.847 53.8992L472.447 82.4992H451.247L449.747 70.9492ZM417.947 53.9492C417.947 56.7492 418.53 59.2492 419.697 61.4492C420.864 63.6492 422.48 65.3826 424.547 66.6492C426.647 67.8826 429.03 68.4992 431.697 68.4992C434.397 68.4992 436.98 67.8826 439.447 66.6492C441.947 65.3826 444.13 63.6492 445.997 61.4492C447.897 59.2492 449.314 56.7492 450.247 53.9492C449.314 51.1492 447.897 48.6492 445.997 46.4492C444.13 44.2159 441.947 42.4825 439.447 41.2492C436.98 39.9825 434.397 39.3492 431.697 39.3492C429.03 39.3492 426.647 39.9825 424.547 41.2492C422.48 42.4825 420.864 44.2159 419.697 46.4492C418.53 48.6492 417.947 51.1492 417.947 53.9492Z" fill="#292929"/>
<path d="M388.407 5.5V82.5H367.957V5.5H388.407Z" fill="#292929"/>
<path d="M327.921 84.1492C321.021 84.1492 314.838 82.8825 309.371 80.3492C303.904 77.7825 299.621 74.1992 296.521 69.5992C293.421 64.9992 291.871 59.7159 291.871 53.7492C291.871 47.8826 293.354 42.6659 296.321 38.0992C299.321 33.5325 303.454 29.9992 308.721 27.4992C313.988 24.9659 319.921 23.6992 326.521 23.6992C333.221 23.6992 339.021 25.1825 343.921 28.1492C348.821 31.0825 352.571 35.2659 355.171 40.6992C357.804 46.0992 359.121 52.4492 359.121 59.7492H314.021C315.421 62.7826 317.788 65.1159 321.121 66.7492C324.454 68.3492 328.654 69.1492 333.721 69.1492C337.921 69.1492 342.104 68.5992 346.271 67.4992C350.438 66.3992 354.238 64.8325 357.671 62.7992V75.7992C353.671 78.4992 349.154 80.5659 344.121 81.9992C339.088 83.4326 333.688 84.1492 327.921 84.1492ZM340.121 47.4492C339.188 44.4492 337.588 42.1492 335.321 40.5492C333.088 38.9159 330.304 38.0992 326.971 38.0992C323.471 38.0992 320.504 38.9492 318.071 40.6492C315.671 42.3159 314.021 44.5825 313.121 47.4492H340.121Z" fill="#292929"/>
<path d="M233.524 5.5V36.15C236.291 32.15 239.708 29.0833 243.774 26.95C247.874 24.7833 252.408 23.7 257.374 23.7C262.908 23.7 267.808 24.9667 272.074 27.5C276.374 30 279.708 33.55 282.074 38.15C284.441 42.7167 285.624 47.9833 285.624 53.95C285.624 59.8833 284.441 65.15 282.074 69.75C279.708 74.3167 276.374 77.8667 272.074 80.4C267.808 82.9 262.908 84.15 257.374 84.15C252.408 84.15 247.874 83.05 243.774 80.85C239.708 78.65 236.291 75.5333 233.524 71.5V82.5H213.074V5.5H233.524ZM232.674 53.95C233.608 56.75 235.008 59.25 236.874 61.45C238.774 63.65 240.958 65.3833 243.424 66.65C245.924 67.8833 248.524 68.5 251.224 68.5C253.891 68.5 256.258 67.8833 258.324 66.65C260.424 65.3833 262.058 63.65 263.224 61.45C264.391 59.25 264.974 56.75 264.974 53.95C264.974 51.15 264.391 48.65 263.224 46.45C262.058 44.2167 260.424 42.4833 258.324 41.25C256.258 39.9833 253.891 39.35 251.224 39.35C248.524 39.35 245.924 39.9833 243.424 41.25C240.958 42.4833 238.774 44.2167 236.874 46.45C235.008 48.65 233.608 51.15 232.674 53.95Z" fill="#292929"/>
<path d="M191.537 26.5L201.787 24.5V82.5H181.337V24.5L191.537 26.5ZM179.637 9.9C179.637 7.9 180.12 6.16667 181.087 4.7C182.087 3.2 183.487 2.05 185.287 1.25C187.087 0.416666 189.17 0 191.537 0C193.903 0 195.987 0.416666 197.787 1.25C199.587 2.05 200.987 3.2 201.987 4.7C202.987 6.16667 203.487 7.9 203.487 9.9C203.487 11.9 202.987 13.65 201.987 15.15C200.987 16.65 199.587 17.8167 197.787 18.65C195.987 19.45 193.903 19.85 191.537 19.85C189.17 19.85 187.087 19.45 185.287 18.65C183.487 17.8167 182.087 16.65 181.087 15.15C180.12 13.65 179.637 11.9 179.637 9.9Z" fill="#292929"/>
<path d="M121.48 25.3516L137.58 64.4016L153.83 25.3516H175.63L148.93 82.5016H125.68L98.9805 25.3516H121.48Z" fill="#292929"/>
<path d="M68.8109 86H46.7109L75.5109 9H97.6109L68.8109 86Z" fill="#FF2D92"/>
<path d="M43.3 65.9984L0 81.3984V62.8984L13.8 58.5984C16.6 57.7984 22.4 56.2984 25.8 55.3984V55.2984C22.4 54.3984 16.8 53.0984 13.7 52.0984L0 47.8984V29.3984L43.3 44.7984V65.9984Z" fill="#FF2D92"/>
</svg>
