<svg width="630" height="86" viewBox="0 0 630 86" fill="none" xmlns="http://www.w3.org/2000/svg">
<path d="M43.3 66L2.83122e-07 81.4V62.9L13.8 58.6C16.6 57.8 22.4 56.3 25.8 55.4V55.3C22.4 54.4 16.8 53.1 13.7 52.1L2.83122e-07 47.9V29.4L43.3 44.8V66ZM68.8094 86H46.7094L75.5094 9H97.6094L68.8094 86Z" fill="#FF2D92"/>
<path d="M121.482 25.35L137.582 64.4L153.832 25.35H175.632L148.932 82.5H125.682L98.982 25.35H121.482ZM191.538 26.5L201.788 24.5V82.5H181.338V24.5L191.538 26.5ZM179.638 9.9C179.638 7.9 180.121 6.16666 181.088 4.69999C182.088 3.2 183.488 2.05 185.288 1.24999C187.088 0.416662 189.171 -4.76837e-06 191.538 -4.76837e-06C193.904 -4.76837e-06 195.988 0.416662 197.788 1.24999C199.588 2.05 200.988 3.2 201.988 4.69999C202.988 6.16666 203.488 7.9 203.488 9.9C203.488 11.9 202.988 13.65 201.988 15.15C200.988 16.65 199.588 17.8167 197.788 18.65C195.988 19.45 193.904 19.85 191.538 19.85C189.171 19.85 187.088 19.45 185.288 18.65C183.488 17.8167 182.088 16.65 181.088 15.15C180.121 13.65 179.638 11.9 179.638 9.9ZM233.526 5.5V36.15C236.292 32.15 239.709 29.0833 243.776 26.95C247.876 24.7833 252.409 23.7 257.376 23.7C262.909 23.7 267.809 24.9667 272.076 27.5C276.376 30 279.709 33.55 282.076 38.15C284.442 42.7167 285.626 47.9833 285.626 53.95C285.626 59.8833 284.442 65.15 282.076 69.75C279.709 74.3167 276.376 77.8667 272.076 80.4C267.809 82.9 262.909 84.15 257.376 84.15C252.409 84.15 247.876 83.05 243.776 80.85C239.709 78.65 236.292 75.5333 233.526 71.5V82.5H213.076V5.5H233.526ZM232.676 53.95C233.609 56.75 235.009 59.25 236.876 61.45C238.776 63.65 240.959 65.3833 243.426 66.65C245.926 67.8833 248.526 68.5 251.226 68.5C253.892 68.5 256.259 67.8833 258.326 66.65C260.426 65.3833 262.059 63.65 263.226 61.45C264.392 59.25 264.976 56.75 264.976 53.95C264.976 51.15 264.392 48.65 263.226 46.45C262.059 44.2167 260.426 42.4833 258.326 41.25C256.259 39.9833 253.892 39.35 251.226 39.35C248.526 39.35 245.926 39.9833 243.426 41.25C240.959 42.4833 238.776 44.2167 236.876 46.45C235.009 48.65 233.609 51.15 232.676 53.95ZM327.921 84.15C321.021 84.15 314.838 82.8833 309.371 80.35C303.904 77.7833 299.621 74.2 296.521 69.6C293.421 65 291.871 59.7167 291.871 53.75C291.871 47.8833 293.354 42.6667 296.321 38.1C299.321 33.5333 303.454 30 308.721 27.5C313.988 24.9667 319.921 23.7 326.521 23.7C333.221 23.7 339.021 25.1833 343.921 28.15C348.821 31.0833 352.571 35.2667 355.171 40.7C357.804 46.1 359.121 52.45 359.121 59.75H314.021C315.421 62.7833 317.788 65.1167 321.121 66.75C324.454 68.35 328.654 69.15 333.721 69.15C337.921 69.15 342.104 68.6 346.271 67.5C350.438 66.4 354.238 64.8333 357.671 62.8V75.8C353.671 78.5 349.154 80.5667 344.121 82C339.088 83.4333 333.688 84.15 327.921 84.15ZM340.121 47.45C339.188 44.45 337.588 42.15 335.321 40.55C333.088 38.9167 330.304 38.1 326.971 38.1C323.471 38.1 320.504 38.95 318.071 40.65C315.671 42.3167 314.021 44.5833 313.121 47.45H340.121ZM388.409 5.5V82.5H367.959V5.5H388.409ZM449.747 70.95C446.98 75.15 443.53 78.4 439.397 80.7C435.264 83 430.647 84.15 425.547 84.15C420.014 84.15 415.097 82.9 410.797 80.4C406.53 77.8667 403.214 74.3167 400.847 69.75C398.48 65.15 397.297 59.8833 397.297 53.95C397.297 47.9833 398.48 42.7167 400.847 38.15C403.214 33.55 406.53 30 410.797 27.5C415.097 24.9667 420.014 23.7 425.547 23.7C430.614 23.7 435.23 24.8333 439.397 27.1C443.564 29.3667 447.03 32.5833 449.797 36.75L451.247 25.35H472.447L468.847 53.9L472.447 82.5H451.247L449.747 70.95ZM417.947 53.95C417.947 56.75 418.53 59.25 419.697 61.45C420.864 63.65 422.48 65.3833 424.547 66.65C426.647 67.8833 429.03 68.5 431.697 68.5C434.397 68.5 436.98 67.8833 439.447 66.65C441.947 65.3833 444.13 63.65 445.997 61.45C447.897 59.25 449.314 56.75 450.247 53.95C449.314 51.15 447.897 48.65 445.997 46.45C444.13 44.2167 441.947 42.4833 439.447 41.25C436.98 39.9833 434.397 39.35 431.697 39.35C429.03 39.35 426.647 39.9833 424.547 41.25C422.48 42.4833 420.864 44.2167 419.697 46.45C418.53 48.65 417.947 51.15 417.947 53.95ZM502.764 5.5V36.15C505.531 32.15 508.947 29.0833 513.014 26.95C517.114 24.7833 521.647 23.7 526.614 23.7C532.147 23.7 537.047 24.9667 541.314 27.5C545.614 30 548.947 33.55 551.314 38.15C553.681 42.7167 554.864 47.9833 554.864 53.95C554.864 59.8833 553.681 65.15 551.314 69.75C548.947 74.3167 545.614 77.8667 541.314 80.4C537.047 82.9 532.147 84.15 526.614 84.15C521.647 84.15 517.114 83.05 513.014 80.85C508.947 78.65 505.531 75.5333 502.764 71.5V82.5H482.314V5.5H502.764ZM501.914 53.95C502.847 56.75 504.247 59.25 506.114 61.45C508.014 63.65 510.197 65.3833 512.664 66.65C515.164 67.8833 517.764 68.5 520.464 68.5C523.131 68.5 525.497 67.8833 527.564 66.65C529.664 65.3833 531.297 63.65 532.464 61.45C533.631 59.25 534.214 56.75 534.214 53.95C534.214 51.15 533.631 48.65 532.464 46.45C531.297 44.2167 529.664 42.4833 527.564 41.25C525.497 39.9833 523.131 39.35 520.464 39.35C517.764 39.35 515.164 39.9833 512.664 41.25C510.197 42.4833 508.014 44.2167 506.114 46.45C504.247 48.65 502.847 51.15 501.914 53.95ZM629.909 63.85C629.909 68.2167 628.576 71.9167 625.909 74.95C623.276 77.9833 619.476 80.2833 614.509 81.85C609.543 83.3833 603.609 84.15 596.709 84.15C589.643 84.15 583.409 83.2833 578.009 81.55C572.643 79.8167 568.443 77.3833 565.409 74.25C562.376 71.0833 560.759 67.4333 560.559 63.3H581.309C581.976 65.6333 583.693 67.4333 586.459 68.7C589.259 69.9667 592.959 70.6 597.559 70.6C601.659 70.6 604.743 70.2 606.809 69.4C608.909 68.6 609.959 67.4167 609.959 65.85C609.959 64.95 609.609 64.2333 608.909 63.7C608.243 63.1333 607.143 62.6833 605.609 62.35C604.109 61.9833 602.043 61.7 599.409 61.5L589.309 60.75C579.543 60.0167 572.576 58.1667 568.409 55.2C564.243 52.2333 562.159 48.1667 562.159 43C562.159 38.8 563.476 35.2667 566.109 32.4C568.776 29.5 572.526 27.3333 577.359 25.9C582.193 24.4333 587.859 23.7 594.359 23.7C600.693 23.7 606.376 24.5333 611.409 26.2C616.476 27.8667 620.509 30.2 623.509 33.2C626.543 36.2 628.276 39.65 628.709 43.55H607.959C607.426 41.55 605.959 39.9 603.559 38.6C601.159 37.3 597.776 36.65 593.409 36.65C589.776 36.65 586.993 37.05 585.059 37.85C583.159 38.6167 582.209 39.7167 582.209 41.15C582.209 42.3833 582.809 43.3167 584.009 43.95C585.209 44.5833 587.393 45.0167 590.559 45.25L603.809 46.25C610.276 46.7167 615.426 47.6833 619.259 49.15C623.093 50.6167 625.826 52.5667 627.459 55C629.093 57.4 629.909 60.35 629.909 63.85Z" fill="#292929"/>
</svg>
